<?xml version="1.0" encoding="UTF-8" standalone="no"?>
<!-- Created with Inkscape (http://www.inkscape.org/) -->

<svg
   viewBox="0 0 96.562378 30.396498"
   version="1.1"
   xmlns="http://www.w3.org/2000/svg"
   xmlns:svg="http://www.w3.org/2000/svg">
  <defs>
    <!-- Glowing effect filters -->
    <filter id="glow" x="-50%" y="-50%" width="200%" height="200%">
      <feGaussianBlur stdDeviation="2" result="coloredBlur"/>
      <feMerge> 
        <feMergeNode in="coloredBlur"/>
        <feMergeNode in="SourceGraphic"/>
      </feMerge>
    </filter>
    
    <filter id="strongGlow" x="-50%" y="-50%" width="200%" height="200%">
      <feGaussianBlur stdDeviation="4" result="coloredBlur"/>
      <feMerge> 
        <feMergeNode in="coloredBlur"/>
        <feMergeNode in="SourceGraphic"/>
      </feMerge>
    </filter>
   

  </defs>
  <g stroke="#00ccff" stroke-width="0.1" fill="none" filter="url(#strongGlow)" transform="translate(-5,-105), scale(0.65,0.65)">
      <path filter="url(#glow)" class="svg-text-path"
         d="m 45.228869,181.83547 q 1.830036,0 3.461635,-1.28985 1.642623,-1.28984 2.138718,-3.11988 l 2.061547,-7.71702 h 3.307295 l -2.061547,7.71702 q -0.859897,3.19705 -3.72622,5.45704 -2.866322,2.25998 -6.063374,2.25998 h -1.102431 l 0.881945,-3.30729 z m 13.79142,-0.88195 -1.741842,2.64584 h -2.866323 l 6.405129,-9.7014 h -1.830037 l 0.716581,-2.64584 h 5.953131 l 0.771702,6.17362 h -2.866323 l -0.352778,-2.80018 -2.436374,3.68212 h 5.754694 l 0.341753,2.64584 z m 21.662781,-6.17362 3.593927,-3.52778 -3.307295,12.34724 h -2.645836 z m -2.138717,4.69636 -4.189241,4.1231 -2.557641,-5.29168 -1.400089,5.29168 h -2.65686 l 3.307295,-12.34724 4.244362,8.81946 4.18924,-4.1231 z m 7.937508,-8.22414 h 2.645836 l -3.307295,12.34724 h -2.645836 z m 7.463463,7.49654 q -1.554428,0 -2.348179,-1.10243 -0.529167,-0.71658 -0.529167,-1.6316 0,-0.48507 0.143316,-1.01424 0.4079,-1.55443 1.796964,-2.64584 1.400088,-1.10243 2.954516,-1.10243 h 7.717026 l -0.71658,2.64584 h -7.717026 q -0.463021,0 -0.870921,0.3197 -0.396876,0.31971 -0.518143,0.78273 -0.0441,0.16536 -0.0441,0.30868 0,0.26458 0.15434,0.47405 0.231511,0.3197 0.694532,0.3197 h 3.968754 q 1.554434,0 2.359204,1.09141 0.52917,0.7276 0.52917,1.65365 0,0.47404 -0.14332,1.00321 -0.41892,1.55443 -1.807987,2.65686 -1.389064,1.09141 -2.943493,1.09141 h -8.598967 l 0.705557,-2.64584 h 8.598967 q 0.463021,0 0.859896,-0.3197 0.4079,-0.31971 0.540192,-0.78273 0.0441,-0.15434 0.0441,-0.29766 0,-0.27561 -0.15434,-0.48507 -0.242535,-0.3197 -0.705557,-0.3197 z m 14.805656,4.8507 q -2.55764,0 -3.88056,-1.80799 -0.88194,-1.19063 -0.88194,-2.70096 0,-0.78273 0.24253,-1.66467 0.68351,-2.55764 2.97657,-4.36563 2.29305,-1.80799 4.8507,-1.80799 2.55764,0 3.88056,1.80799 0.87092,1.19063 0.87092,2.71198 0,0.78273 -0.23151,1.65365 -0.69454,2.55764 -2.98759,4.36563 -2.28204,1.80799 -4.83968,1.80799 z m 0.70556,-2.64584 q 1.46623,0 2.7671,-1.02526 1.31189,-1.03629 1.70877,-2.50252 0.13229,-0.49609 0.13229,-0.93707 0,-0.88194 -0.49609,-1.56545 -0.76068,-1.02526 -2.22691,-1.02526 -1.46624,0 -2.77813,1.03628 -1.30087,1.02527 -1.68672,2.4915 -0.13229,0.50712 -0.13229,0.95912 0,0.85989 0.49609,1.53238 0.74965,1.03628 2.21589,1.03628 z m 17.19793,0 -4.93889,-4.63021 -1.92925,7.27605 h -2.65687 l 3.3073,-12.34724 7.04454,6.61459 z m 1.53238,-2.42535 1.96233,-7.27605 h 2.64584 l -3.3073,12.34724 -0.011,-0.011 v 0.011 l -2.11667,-1.98438 z"
      />
      <path filter="url(#glow)" class="svg-text-path"
         d="m 52.890625,169.57617 a 0.13230472,0.13230472 0 0 0 -0.126953,0.0977 l -2.0625,7.71679 c -0.323137,1.19202 -1.015529,2.20567 -2.091797,3.05079 -1.068856,0.84497 -2.191916,1.26171 -3.380859,1.26171 h -1.101563 a 0.13230472,0.13230472 0 0 0 -0.128906,0.0977 l -0.88086,3.30859 a 0.13230472,0.13230472 0 0 0 0.126954,0.16602 h 1.103515 c 2.16254,0 4.214871,-0.7676 6.144531,-2.28906 1.929649,-1.52146 3.190675,-3.36597 3.771485,-5.52539 a 0.13230472,0.13230472 0 0 0 0,-0.002 l 2.0625,-7.71679 a 0.13230472,0.13230472 0 0 0 -0.128906,-0.16602 z m 0.101562,0.26563 h 3.033204 l -2.017579,7.54882 c -0.565719,2.10332 -1.787571,3.89681 -3.679687,5.38868 -1.892102,1.49184 -3.880273,2.23047 -5.980469,2.23047 h -0.929687 l 0.810547,-3.04297 h 1 c 1.250263,0 2.436997,-0.44275 3.542968,-1.31641 l 0.002,-0.002 c 1.112607,-0.87433 1.845503,-1.94032 2.183594,-3.1875 a 0.13230472,0.13230472 0 0 0 0,-0.002 z m 6.710938,1.27734 a 0.13230472,0.13230472 0 0 0 -0.126953,0.0977 l -0.716797,2.64648 a 0.13230472,0.13230472 0 0 0 0.126953,0.16602 h 1.585938 l -6.271485,9.49804 a 0.13230472,0.13230472 0 0 0 0.111328,0.20508 h 2.867188 a 0.13230472,0.13230472 0 0 0 0.109375,-0.0605 l 1.703125,-2.58593 h 7.777344 A 0.13230472,0.13230472 0 0 0 67,180.9375 l -0.341797,-2.64648 a 0.13230472,0.13230472 0 0 0 -0.130859,-0.11524 h -5.507813 l 2.103516,-3.17773 0.308594,2.44336 a 0.13230472,0.13230472 0 0 0 0.130859,0.11718 h 2.865234 a 0.13230472,0.13230472 0 0 0 0.132813,-0.14843 l -0.771485,-6.17383 a 0.13230472,0.13230472 0 0 0 -0.132812,-0.11719 z m 26.779297,0 a 0.13230472,0.13230472 0 0 0 -0.128906,0.0996 l -3.306641,12.3457 a 0.13230472,0.13230472 0 0 0 0.126953,0.16797 h 2.646484 a 0.13230472,0.13230472 0 0 0 0.126954,-0.0996 l 3.308593,-12.3457 a 0.13230472,0.13230472 0 0 0 -0.128906,-0.16797 z m 9.480469,0 c -1.06756,0 -2.085022,0.38119 -3.03711,1.13086 -0.945087,0.74257 -1.562435,1.6522 -1.841797,2.7168 -0.09785,0.36191 -0.148437,0.71108 -0.148437,1.04687 0,0.63486 0.186682,1.20998 0.554687,1.70899 0.553094,0.76818 1.387519,1.1582 2.455078,1.1582 h 3.96875 c 0.278234,0 0.46242,0.0867 0.59961,0.26758 0.08569,0.11693 0.128906,0.24594 0.128906,0.40429 0,0.082 -0.01263,0.16923 -0.03906,0.26172 -0.08054,0.28188 -0.2431,0.51655 -0.496094,0.71485 a 0.13230472,0.13230472 0 0 0 0,0.002 c -0.245011,0.19737 -0.499111,0.28906 -0.777344,0.28906 h -8.599609 a 0.13230472,0.13230472 0 0 0 -0.126953,0.0996 l -0.707032,2.64453 a 0.13230472,0.13230472 0 0 0 0.128907,0.16797 H 96.625 c 1.067248,0 2.080498,-0.37867 3.025391,-1.12109 0.944689,-0.74975 1.566719,-1.66239 1.853519,-2.72656 0.0981,-0.36241 0.14648,-0.70775 0.14648,-1.03711 0,-0.64257 -0.18425,-1.22381 -0.55273,-1.73047 a 0.13230472,0.13230472 0 0 0 -0.002,-0.002 c -0.56066,-0.76035 -1.397591,-1.14453 -2.464841,-1.14453 h -3.96875 c -0.278233,0 -0.458122,-0.0864 -0.58789,-0.26562 -0.08711,-0.11823 -0.128907,-0.24582 -0.128907,-0.39649 10e-7,-0.082 0.01211,-0.17239 0.03906,-0.27343 a 0.13230472,0.13230472 0 0 0 0,-0.002 c 0.07377,-0.28168 0.229196,-0.51519 0.474609,-0.71289 0.252084,-0.19692 0.509707,-0.29101 0.78711,-0.29101 h 7.716799 a 0.13230472,0.13230472 0 0 0 0.12891,-0.0977 l 0.71484,-2.64453 a 0.13230472,0.13230472 0 0 0 -0.12695,-0.16797 z m 16.095699,0 c -1.73627,0 -3.38611,0.61776 -4.93359,1.83789 -1.54751,1.22015 -2.55829,2.70036 -3.02148,4.43359 -0.16434,0.59761 -0.24805,1.16374 -0.24805,1.69922 0,1.03264 0.30432,1.96405 0.9082,2.7793 0.90594,1.23812 2.25202,1.86328 3.98828,1.86328 1.73627,0 3.37971,-0.61762 4.91993,-1.83789 1.54741,-1.22008 2.56259,-2.70057 3.0332,-4.43359 a 0.13230472,0.13230472 0 0 0 0.002,-0.002 c 0.15687,-0.59012 0.23438,-1.15263 0.23438,-1.6875 0,-1.03947 -0.30002,-1.97363 -0.89649,-2.78906 -0.90594,-1.23811 -2.25006,-1.86328 -3.98633,-1.86328 z m 18.08985,0 a 0.13230472,0.13230472 0 0 0 -0.12696,0.0977 l -1.96289,7.27734 -0.82617,3.08594 a 0.13230472,0.13230472 0 0 0 0.0371,0.13086 l 2.11719,1.98437 a 0.13230472,0.13230472 0 0 0 0.006,-0.004 l 0.002,0.002 a 0.13230472,0.13230472 0 0 0 0.2207,-0.0606 l 3.30664,-12.3457 a 0.13230472,0.13230472 0 0 0 -0.12695,-0.16797 z m -9.6211,0.0371 a 0.13230472,0.13230472 0 0 0 -0.21875,0.0625 l -3.30664,12.3457 a 0.13230472,0.13230472 0 0 0 0.12696,0.16797 h 2.6582 a 0.13230472,0.13230472 0 0 0 0.12695,-0.0996 l 1.87305,-7.06054 4.77734,4.47851 a 0.13230472,0.13230472 0 0 0 0.21875,-0.0625 l 0.82618,-3.08789 a 0.13230472,0.13230472 0 0 0 -0.0371,-0.13086 z m -36.343746,0.002 -3.59375,3.52735 a 0.13230472,0.13230472 0 0 0 -0.03516,0.0605 l -2.359375,8.81836 a 0.13230472,0.13230472 0 0 0 0.128907,0.16797 h 2.644531 a 0.13230472,0.13230472 0 0 0 0.128906,-0.0996 l 3.306641,-12.3457 a 0.13230472,0.13230472 0 0 0 -0.220703,-0.12891 z m -13.015625,0.0371 a 0.13230472,0.13230472 0 0 0 -0.248047,0.0234 l -3.306641,12.3457 a 0.13230472,0.13230472 0 0 0 0.126953,0.16797 h 2.65625 a 0.13230472,0.13230472 0 0 0 0.128907,-0.0996 l 1.308593,-4.94531 2.402344,4.96875 a 0.13230472,0.13230472 0 0 0 0.210938,0.0371 l 4.189453,-4.12305 a 0.13230472,0.13230472 0 0 0 0.03516,-0.0605 l 0.9375,-3.52735 a 0.13230472,0.13230472 0 0 0 -0.220703,-0.1289 l -4.056641,3.99218 z m -11.363282,0.18946 h 5.736329 l 0.738281,5.9082 h -2.59961 l -0.339843,-2.6836 a 0.13230472,0.13230472 0 0 0 -0.240235,-0.0566 l -2.4375,3.68164 a 0.13230472,0.13230472 0 0 0 0.111328,0.20508 h 5.638672 l 0.306641,2.38086 h -7.699219 a 0.13230472,0.13230472 0 0 0 -0.109375,0.0606 l -1.703125,2.58594 h -2.548828 l 6.269531,-9.4961 a 0.13230472,0.13230472 0 0 0 -0.111328,-0.20508 h -1.65625 z m 26.779297,0 h 2.371094 l -3.236328,12.082 h -2.371094 z m 9.378907,0 h 7.544919 l -0.64648,2.38085 h -7.615236 c -0.339128,0 -0.662064,0.11954 -0.953125,0.34766 a 0.13230472,0.13230472 0 0 0 0,0.002 c -0.283755,0.22859 -0.476538,0.51589 -0.564453,0.85157 -0.03185,0.11943 -0.04687,0.23268 -0.04687,0.34179 0,0.20211 0.06102,0.39168 0.179687,0.55274 0.178973,0.24609 0.462332,0.37305 0.800781,0.37304 h 3.96875 c 1.005326,0 1.739586,0.34421 2.251956,1.03907 0.33632,0.46308 0.50391,0.98271 0.50391,1.57422 0,0.30269 -0.0457,0.62559 -0.13867,0.96875 -0.27177,1.0084 -0.85432,1.86773 -1.761727,2.58789 -0.907192,0.71279 -1.856004,1.0625 -2.861328,1.0625 h -8.427734 l 0.634765,-2.38086 h 8.498047 c 0.338282,0 0.657783,-0.11987 0.941406,-0.34766 l 0.002,-0.002 c 0.289627,-0.2277 0.488385,-0.51501 0.583985,-0.84961 0.03237,-0.1133 0.04883,-0.22487 0.04883,-0.33399 0,-0.20843 -0.06036,-0.40055 -0.179688,-0.5625 a 0.13230472,0.13230472 0 0 0 -0.002,-0.002 c -0.186189,-0.24543 -0.471418,-0.37109 -0.810547,-0.37109 h -3.96875 c -1.00501,0 -1.734993,-0.34711 -2.240234,-1.04883 a 0.13230472,0.13230472 0 0 0 -0.002,0 c -0.336793,-0.45607 -0.501953,-0.97018 -0.501953,-1.55469 0,-0.31035 0.04579,-0.63558 0.138672,-0.97851 a 0.13230472,0.13230472 0 0 0 0,-0.002 c 0.264505,-1.00798 0.843002,-1.86157 1.75,-2.57422 0.914696,-0.72023 1.868036,-1.07421 2.873047,-1.07421 z m 16.095699,0 c 1.67392,0 2.91549,0.58136 3.77344,1.7539 0.56476,0.77208 0.8457,1.64383 0.8457,2.63281 0,0.50878 -0.0747,1.04999 -0.22656,1.6211 -0.45564,1.67642 -1.4339,3.10476 -2.94336,4.29492 -1.5025,1.19039 -3.08194,1.7793 -4.75586,1.7793 -1.67392,0 -2.91743,-0.58137 -3.77539,-1.75391 -0.57203,-0.77225 -0.85547,-1.64191 -0.85547,-2.62305 0,-0.50815 0.0793,-1.05059 0.23829,-1.6289 a 0.13230472,0.13230472 0 0 0 0,-0.002 c 0.44815,-1.67695 1.41977,-3.10441 2.92968,-4.29492 1.50992,-1.19052 3.09561,-1.77929 4.76953,-1.77929 z m 18.19141,0 h 2.37305 l -3.20899,11.9746 -1.90625,-1.7871 0.80664,-3.00977 z m -9.74219,0.11523 6.82617,6.4082 -0.75,2.79883 -4.77734,-4.48047 a 0.13230472,0.13230472 0 0 0 -0.21875,0.0625 l -1.9043,7.17774 h -2.38086 z m -49.423826,0.13281 4.089844,8.4961 a 0.13230472,0.13230472 0 0 0 0.210938,0.0371 l 3.84375,-3.78321 -0.804688,3.02539 -4.029297,3.9668 -2.478515,-5.125 a 0.13230472,0.13230472 0 0 0 -0.246094,0.0234 l -1.375,5.19336 h -2.38086 z m 12.939453,0.0527 -3.154296,11.78125 h -2.373047 l 2.304687,-8.61719 z m 27.318363,2.08007 c -1.00866,1e-5 -1.96597,0.35874 -2.85938,1.06446 -0.88633,0.69855 -1.46976,1.55697 -1.73437,2.5625 -0.0906,0.34737 -0.13672,0.67795 -0.13672,0.99219 0,0.5987 0.17672,1.14132 0.52344,1.61132 0.52378,0.72249 1.31469,1.08985 2.32226,1.08985 1.00832,0 1.96143,-0.35623 2.84766,-1.05469 0.89331,-0.70565 1.48372,-1.56493 1.75586,-2.57031 a 0.13230472,0.13230472 0 0 0 0,-0.002 c 0.0907,-0.34015 0.13672,-0.66348 0.13672,-0.9707 0,-0.61276 -0.17487,-1.16501 -0.52149,-1.64258 a 0.13230472,0.13230472 0 0 0 0,-0.002 c -0.53135,-0.71617 -1.32566,-1.07812 -2.33398,-1.07813 z m 0,0.26368 c 0.94552,0 1.63633,0.32143 2.11914,0.9707 0.31484,0.43378 0.4707,0.92513 0.4707,1.48828 0,0.28076 -0.0413,0.583 -0.12695,0.9043 -0.25722,0.94891 -0.80671,1.75594 -1.66211,2.43164 -0.84827,0.66855 -1.7389,0.99609 -2.68555,0.99609 -0.94633,0 -1.63361,-0.3228 -2.10937,-0.98047 a 0.13230472,0.13230472 0 0 0 0,-0.002 c -0.31474,-0.42665 -0.47071,-0.90531 -0.47071,-1.45312 0,-0.28843 0.0412,-0.59699 0.12696,-0.92579 0.24985,-0.94944 0.79246,-1.75145 1.64062,-2.41992 a 0.13230472,0.13230472 0 0 0 0.002,-0.002 c 0.85579,-0.67599 1.74899,-1.00781 2.69532,-1.00781 z"
      />
      <path filter="url(#glow)" class="svg-text-path"
         d="M 43.229403,199.84015 H 39.6465 l -1.929255,-15.43404 h 3.582903 z m 0.628386,-5.96416 6.261812,-9.46988 h 3.582903 l -9.27145,14.03395 z m 12.049579,-9.46988 h 3.582903 l -10.197493,15.43404 h -3.582903 z m 3.693145,1.5434 h 2.645836 l -3.307295,12.34723 h -2.645836 z m 11.068415,9.7014 -4.938894,-4.63021 -1.929255,7.27604 h -2.65686 l 3.307295,-12.34723 7.044538,6.61459 z m 1.53238,-2.42535 1.962329,-7.27605 h 2.645836 l -3.307295,12.34723 -0.01103,-0.011 v 0.011 l -2.116668,-1.98437 z m 6.802003,-7.27605 7.066587,-0.011 -3.318319,12.34723 h -2.645836 l 2.601738,-9.7014 -4.420751,0.011 z m 7.948532,-0.011 H 90.4686 l -0.705556,2.64583 h -3.516757 z m 18.068857,0.011 -0.71658,2.64584 H 91.956881 l 0.716581,-2.64584 z m -3.78134,7.49654 H 90.656012 l 0.71658,-2.65687 10.583348,0.011 z m -0.58429,2.21588 -0.705559,2.63481 H 89.366167 l 0.705556,-2.63481 z m 7.49654,-0.011 -0.70556,2.64583 h -2.64584 l 0.70556,-2.64583 z m 2.60173,-2.20486 h -5.54523 l 0.71658,-2.64584 h 8.59897 q 0.46302,0 0.8599,-0.31971 0.4079,-0.3197 0.54019,-0.78272 0.0441,-0.15434 0.0441,-0.29766 0,-0.27561 -0.15434,-0.48507 -0.24254,-0.3197 -0.70556,-0.3197 h -7.71702 l 0.71658,-2.64584 h 7.71702 q 1.55443,0 2.3592,1.09141 0.52917,0.7276 0.52917,1.65364 0,0.47405 -0.14332,1.00322 -0.41892,1.55443 -1.80798,2.64583 -1.37804,1.09141 -2.92145,1.10244 l 2.86633,4.85069 h -3.08681 z m 13.52684,0 q -1.55443,0 -2.34818,-1.10244 -0.52916,-0.71658 -0.52916,-1.6316 0,-0.48507 0.14331,-1.01423 0.4079,-1.55443 1.79697,-2.64584 1.40008,-1.10243 2.95451,-1.10243 h 7.71702 l -0.71658,2.64584 h -7.71702 q -0.46302,0 -0.87092,0.3197 -0.39687,0.31971 -0.51814,0.78273 -0.0441,0.16536 -0.0441,0.30868 0,0.26458 0.15434,0.47404 0.23151,0.31971 0.69453,0.31971 h 3.96876 q 1.55443,0 2.3592,1.09141 0.52917,0.7276 0.52917,1.65364 0,0.47405 -0.14332,1.00322 -0.41892,1.55443 -1.80799,2.65686 -1.38906,1.0914 -2.94349,1.0914 h -8.59897 l 0.70556,-2.64583 h 8.59897 q 0.46302,0 0.85989,-0.31971 0.4079,-0.3197 0.5402,-0.78272 0.0441,-0.15434 0.0441,-0.29766 0,-0.27561 -0.15434,-0.48507 -0.24253,-0.3197 -0.70555,-0.3197 z"
      />
      <path filter="url(#glow)" class="svg-text-path"
         d="m 37.716797,184.27344 a 0.13230472,0.13230472 0 0 0 -0.13086,0.14843 l 1.929688,15.43555 a 0.13230472,0.13230472 0 0 0 0.130859,0.11524 h 3.582032 a 0.13230472,0.13230472 0 0 0 0.132812,-0.14844 l -1.929687,-15.4336 a 0.13230472,0.13230472 0 0 0 -0.13086,-0.11718 z m 12.402344,0 a 0.13230472,0.13230472 0 0 0 -0.109375,0.0605 l -6.261719,9.46875 a 0.13230472,0.13230472 0 0 0 -0.02148,0.0899 l 0.572266,4.56445 a 0.13230472,0.13230472 0 0 0 0.242188,0.0566 L 53.8125,184.47852 a 0.13230472,0.13230472 0 0 0 -0.109375,-0.20508 z m 5.789062,0 a 0.13230472,0.13230472 0 0 0 -0.111328,0.0605 l -10.197266,15.4336 a 0.13230472,0.13230472 0 0 0 0.109375,0.20508 h 3.583985 a 0.13230472,0.13230472 0 0 0 0.109375,-0.0605 l 10.199218,-15.43359 a 0.13230472,0.13230472 0 0 0 -0.111328,-0.20508 z m -18.041016,0.26562 h 3.316407 l 1.894531,15.16797 h -3.314453 z m 12.324219,0 h 3.265625 l -8.939453,13.5293 -0.523437,-4.1582 z m 5.78711,0 h 3.267578 l -10.025391,15.16797 h -3.265625 z m 30.091796,1.26758 -7.066406,0.01 a 0.13230472,0.13230472 0 0 0 -0.128906,0.0977 l -0.716797,2.64649 a 0.13230472,0.13230472 0 0 0 0.128906,0.16797 l 4.248047,-0.0117 -2.55664,9.53515 a 0.13230472,0.13230472 0 0 0 0.126953,0.16602 h 2.646484 a 0.13230472,0.13230472 0 0 0 0.126953,-0.0977 l 3.31836,-12.34765 a 0.13230472,0.13230472 0 0 0 -0.126954,-0.16602 z m 0.88086,0 a 0.13230472,0.13230472 0 0 0 -0.126953,0.0977 l -0.705078,2.64648 a 0.13230472,0.13230472 0 0 0 0.126953,0.16602 h 3.517578 a 0.13230472,0.13230472 0 0 0 0.126953,-0.0977 l 0.705078,-2.64648 a 0.13230472,0.13230472 0 0 0 -0.126953,-0.16602 z m -27.351563,0.01 a 0.13230472,0.13230472 0 0 0 -0.126953,0.0996 l -3.30664,12.3457 a 0.13230472,0.13230472 0 0 0 0.126953,0.16797 h 2.646484 a 0.13230472,0.13230472 0 0 0 0.126953,-0.0996 L 62.375,185.98437 a 0.13230472,0.13230472 0 0 0 -0.128906,-0.16796 z m 14.564453,0 a 0.13230472,0.13230472 0 0 0 -0.128906,0.0996 l -1.960937,7.27539 -0.828125,3.08593 a 0.13230472,0.13230472 0 0 0 0.03711,0.13086 l 2.117188,1.98438 a 0.13230472,0.13230472 0 0 0 0.0078,-0.004 v 0.002 a 0.13230472,0.13230472 0 0 0 0.222656,-0.0605 L 76.9375,185.98437 a 0.13230472,0.13230472 0 0 0 -0.128906,-0.16796 z m 18.509766,0 a 0.13230472,0.13230472 0 0 0 -0.128906,0.0977 l -0.714844,2.64649 a 0.13230472,0.13230472 0 0 0 0.126953,0.16797 h 12.347659 a 0.13230472,0.13230472 0 0 0 0.12695,-0.0977 l 0.7168,-2.64649 a 0.13230472,0.13230472 0 0 0 -0.12696,-0.16796 z m 15.433592,0 a 0.13230472,0.13230472 0 0 0 -0.12695,0.0977 l -0.7168,2.64649 a 0.13230472,0.13230472 0 0 0 0.12696,0.16797 h 7.71679 c 0.27748,0 0.46253,0.0858 0.59961,0.26562 0.0865,0.11733 0.12891,0.2472 0.12891,0.40625 0,0.082 -0.0126,0.16923 -0.0391,0.26172 -0.0805,0.28188 -0.24115,0.51655 -0.49415,0.71484 a 0.13230472,0.13230472 0 0 0 -0.002,0 c -0.24501,0.19738 -0.49911,0.29102 -0.77734,0.29102 h -8.59961 a 0.13230472,0.13230472 0 0 0 -0.12695,0.0977 l -0.7168,2.64649 a 0.13230472,0.13230472 0 0 0 0.1289,0.16601 h 5.46875 l 2.82813,4.78516 a 0.13230472,0.13230472 0 0 0 0.11328,0.0664 h 3.08789 a 0.13230472,0.13230472 0 0 0 0.11328,-0.20117 l -2.77148,-4.68946 c 0.98204,-0.0537 1.9203,-0.39909 2.79492,-1.09179 0.94495,-0.74246 1.5667,-1.6506 1.85352,-2.71485 0.0981,-0.3624 0.14843,-0.70774 0.14843,-1.03711 0,-0.64256 -0.1862,-1.22576 -0.55468,-1.73242 -0.56066,-0.76035 -1.39955,-1.14648 -2.4668,-1.14648 z m 18.18946,0 c -1.06757,0 -2.08308,0.38118 -3.03516,1.13086 -0.94509,0.74257 -1.56439,1.6522 -1.84375,2.71679 -0.0982,0.36262 -0.14649,0.71242 -0.14649,1.04883 0,0.63552 0.18593,1.20962 0.55469,1.70898 0.5531,0.76735 1.38616,1.15625 2.45313,1.15625 h 3.96875 c 0.27748,0 0.46253,0.0877 0.59961,0.26758 0.0857,0.11694 0.1289,0.24595 0.1289,0.4043 0,0.082 -0.0126,0.16923 -0.0391,0.26172 -0.0805,0.28188 -0.24115,0.51655 -0.49414,0.71484 a 0.13230472,0.13230472 0 0 0 -0.002,0.002 c -0.24501,0.19737 -0.49912,0.29101 -0.77735,0.29101 h -8.59765 a 0.13230472,0.13230472 0 0 0 -0.12891,0.0977 l -0.70508,2.64453 a 0.13230472,0.13230472 0 0 0 0.12696,0.16797 h 8.5996 c 1.06725,0 2.0805,-0.37869 3.02539,-1.1211 0.94418,-0.74934 1.56652,-1.66118 1.85352,-2.72461 v -0.002 c 0.0978,-0.36167 0.14844,-0.70835 0.14844,-1.03711 0,-0.64256 -0.18621,-1.22381 -0.55469,-1.73047 a 0.13230472,0.13230472 0 0 0 0,-0.002 c -0.56066,-0.76035 -1.39955,-1.14453 -2.4668,-1.14453 H 124.996 c -0.27823,0 -0.45617,-0.0864 -0.58593,-0.26563 a 0.13230472,0.13230472 0 0 0 -0.002,0 c -0.0871,-0.11822 -0.1289,-0.24582 -0.1289,-0.39648 0,-0.082 0.0141,-0.17239 0.041,-0.27344 a 0.13230472,0.13230472 0 0 0 0,-0.002 c 0.0738,-0.28168 0.22725,-0.5152 0.47266,-0.71289 0.25208,-0.19693 0.50971,-0.28906 0.78711,-0.28906 h 7.71875 a 0.13230472,0.13230472 0 0 0 0.12695,-0.0977 l 0.7168,-2.64649 a 0.13230472,0.13230472 0 0 0 -0.12696,-0.16796 z m -61.755864,0.0371 a 0.13230472,0.13230472 0 0 0 -0.216797,0.0625 l -3.308594,12.3457 a 0.13230472,0.13230472 0 0 0 0.128906,0.16797 h 2.65625 a 0.13230472,0.13230472 0 0 0 0.126953,-0.0996 l 1.873047,-7.06055 4.777344,4.47852 a 0.13230472,0.13230472 0 0 0 0.21875,-0.0625 l 0.826172,-3.08789 a 0.13230472,0.13230472 0 0 0 -0.03711,-0.13086 z m 21.355468,0.21679 -3.246093,12.08399 h -2.371094 l 2.55664,-9.53516 a 0.13230472,0.13230472 0 0 0 -0.128906,-0.16797 l -4.248047,0.0117 0.644532,-2.38086 z m 1.158203,0 h 3.240235 l -0.632813,2.38086 h -3.242187 z m -27.351562,0.0117 h 2.371094 l -3.236328,12.08203 h -2.371094 z m 14.5625,0 h 2.371094 l -3.207032,11.97656 -1.90625,-1.78906 0.804688,-3.00976 z m 18.509766,0 h 12.072269 l -0.64453,2.38086 H 92.128906 Z m 15.433589,0 h 7.61524 c 1.0047,0 1.73963,0.34311 2.25195,1.03711 0.33708,0.46348 0.50391,0.98401 0.50391,1.57617 0,0.3027 -0.0457,0.62559 -0.13867,0.96875 -0.27175,1.00833 -0.85459,1.86343 -1.76172,2.57617 -0.90002,0.71282 -1.84181,1.06709 -2.83985,1.07422 a 0.13230472,0.13230472 0 0 0 -0.11328,0.19922 l 2.74805,4.65039 h -2.7793 l -2.82812,-4.78515 a 0.13230472,0.13230472 0 0 0 -0.11328,-0.0645 h -5.37305 l 0.64453,-2.38281 h 8.49805 c 0.33851,0 0.65763,-0.11956 0.9414,-0.34766 0.29088,-0.22797 0.49009,-0.51412 0.58594,-0.84961 0.0324,-0.11329 0.0488,-0.22486 0.0488,-0.33398 0,-0.20843 -0.0604,-0.4025 -0.17969,-0.56445 a 0.13230472,0.13230472 0 0 0 -0.002,0 c -0.18619,-0.24543 -0.47142,-0.37305 -0.81055,-0.37305 h -7.54297 z m 18.0879,0 h 7.54492 l -0.64453,2.38086 h -7.61719 c -0.33913,0 -0.66011,0.11953 -0.95117,0.34766 a 0.13230472,0.13230472 0 0 0 -0.002,0.002 c -0.28375,0.22858 -0.47458,0.51589 -0.5625,0.85156 -0.0318,0.11944 -0.0488,0.23268 -0.0488,0.3418 0,0.20211 0.061,0.39168 0.17968,0.55273 0.17891,0.24708 0.46166,0.37305 0.80078,0.37305 h 3.96875 c 1.0042,0 1.73966,0.34382 2.25196,1.03711 0.33707,0.46348 0.5039,0.98401 0.5039,1.57617 0,0.3027 -0.0457,0.62559 -0.13867,0.96875 -0.27176,1.0084 -0.85431,1.86773 -1.76172,2.58789 -0.90719,0.71279 -1.856,1.0625 -2.86133,1.0625 h -8.42578 l 0.63477,-2.38086 h 8.49609 c 0.33828,0 0.65779,-0.11986 0.94141,-0.34765 l 0.002,-0.002 c 0.28963,-0.22768 0.48838,-0.51501 0.58399,-0.84961 0.0324,-0.11329 0.0488,-0.22486 0.0488,-0.33398 0,-0.20843 -0.0603,-0.40055 -0.17968,-0.5625 a 0.13230472,0.13230472 0 0 0 0,-0.002 c -0.18619,-0.24543 -0.47338,-0.3711 -0.8125,-0.3711 h -3.96875 c -1.00501,0 -1.735,-0.3471 -2.24024,-1.04883 -0.33679,-0.45607 -0.5039,-0.96822 -0.5039,-1.55273 0,-0.31035 0.0458,-0.63754 0.13867,-0.98047 a 0.13230472,0.13230472 0 0 0 0,-0.002 c 0.2645,-1.00798 0.84495,-1.86158 1.75195,-2.57422 0.91469,-0.72023 1.86608,-1.07422 2.8711,-1.07422 z m -61.775396,0.11524 6.826172,6.4082 -0.75,2.79687 -4.777344,-4.47851 a 0.13230472,0.13230472 0 0 0 -0.21875,0.0625 l -1.902343,7.17773 h -2.382813 z m 26.851563,4.45898 a 0.13230472,0.13230472 0 0 0 -0.128906,0.0977 l -0.716797,2.6582 a 0.13230472,0.13230472 0 0 0 0.128906,0.16601 h 10.58398 a 0.13230472,0.13230472 0 0 0 0.12696,-0.0977 l 0.71679,-2.64649 a 0.13230472,0.13230472 0 0 0 -0.12695,-0.16601 z m 0.101562,0.26562 10.308591,0.01 -0.64453,2.38281 H 90.828125 Z m 14.031251,4.59766 a 0.13230472,0.13230472 0 0 0 -0.12695,0.0977 l -0.70703,2.64453 a 0.13230472,0.13230472 0 0 0 0.1289,0.16797 h 2.64453 a 0.13230472,0.13230472 0 0 0 0.12891,-0.0996 l 0.70508,-2.64453 a 0.13230472,0.13230472 0 0 0 -0.12696,-0.16602 z m -15.433594,0.01 a 0.13230472,0.13230472 0 0 0 -0.128907,0.0976 l -0.705078,2.63477 a 0.13230472,0.13230472 0 0 0 0.126953,0.16797 h 10.583985 a 0.13230472,0.13230472 0 0 0 0.128911,-0.0996 l 0.70507,-2.63477 a 0.13230472,0.13230472 0 0 0 -0.1289,-0.16601 z m 15.535154,0.2539 h 2.3711 l -0.63477,2.38086 h -2.37109 z m -15.433592,0.0117 h 10.308592 l -0.634764,2.36914 H 89.539062 Z"
      />
      
  </g>
</svg>
