<svg viewBox="0 0 400 150" xmlns="http://www.w3.org/2000/svg">
  <defs>
    <!-- Glowing effect filters -->
    <filter id="glow" x="-50%" y="-50%" width="200%" height="200%">
      <feGaussianBlur stdDeviation="2" result="coloredBlur"/>
      <feMerge> 
        <feMergeNode in="coloredBlur"/>
        <feMergeNode in="SourceGraphic"/>
      </feMerge>
    </filter>
    
    <filter id="strongGlow" x="-50%" y="-50%" width="200%" height="200%">
      <feGaussianBlur stdDeviation="4" result="coloredBlur"/>
      <feMerge> 
        <feMergeNode in="coloredBlur"/>
        <feMergeNode in="SourceGraphic"/>
      </feMerge>
    </filter>
    
    <!-- Background gradient -->
    <radialGradient id="bgGrad" cx="50%" cy="50%" r="70%">
      <stop offset="0%" style="stop-color:#1a3a5c"/>
      <stop offset="100%" style="stop-color:#0a1a2e"/>
    </radialGradient>
    
    <!-- Panel fill gradient -->
    <linearGradient id="panelFill" x1="0%" y1="0%" x2="100%" y2="100%">
      <stop offset="0%" style="stop-color:#1e3a5f;stop-opacity:0.3"/>
      <stop offset="100%" style="stop-color:#0d2440;stop-opacity:0.1"/>
    </linearGradient>
  </defs>
  
  <!-- Background -->
  <rect width="400" height="150" fill="url(#bgGrad)"/>
  
      <!-- Main panel frame with angled corners -->
  <g>
    <!-- Panel background fill -->
    <path d="M 50 25 
             L 350 25 
             L 370 35 
             L 370 115 
             L 350 125 
             L 50 125 
             L 30 115 
             L 30 35
             Z" 
          fill="url(#panelFill)" 
          stroke="none"/>
    
    <!-- Main glowing border -->
    <path d="M 50 25 
             L 350 25 
             L 370 35 
             L 370 115 
             L 350 125 
             L 50 125 
             L 30 115 
             L 30 35
             Z" 
          fill="none" 
          stroke="#00ccff" 
          stroke-width="2" 
          filter="url(#strongGlow)"/>
    
    
    <!-- Corner accent details -->
    <g stroke="#00ccff" stroke-width="1.5" fill="none" filter="url(#glow)">
      <!-- Top left corner detail -->
      <path d="M 30 35 L 30 45 M 50 25 L 60 25"/>
      
      <!-- Top right corner detail -->
      <path d="M 340 25 L 350 25 M 370 35 L 370 45"/>
      
      <!-- Bottom right corner detail -->
      <path d="M 370 115 L 370 105 M 350 125 L 340 125"/>
      
      <!-- Bottom left corner detail -->
      <path d="M 50 125 L 60 125 M 30 115 L 30 105"/>
    </g>
    
    <!-- Additional tech details -->
    <g stroke="#00aadd" stroke-width="1" opacity="0.8" filter="url(#glow)">
    </g>
    
    <!-- Subtle internal pattern -->
    <g stroke="#00ccff" stroke-width="0.5" opacity="0.3">
      <line x1="60" y1="40" x2="340" y2="40"/>
      <line x1="60" y1="110" x2="340" y2="110"/>
    </g>
  </g>
</svg>