<svg
   width="203.94376mm"
   height="76.861702mm"
   viewBox="0 0 203.94376 76.861702"
   xmlns="http://www.w3.org/2000/svg"
   xmlns:svg="http://www.w3.org/2000/svg">
   
  <defs>
    <!-- Glowing effect filters -->
    <filter id="glow" x="-50%" y="-50%" width="200%" height="200%">
      <feGaussianBlur stdDeviation="2" result="coloredBlur"/>
      <feMerge> 
        <feMergeNode in="coloredBlur"/>
        <feMergeNode in="SourceGraphic"/>
      </feMerge>
    </filter>
    
    <filter id="strongGlow" x="-50%" y="-50%" width="200%" height="200%">
      <feGaussianBlur stdDeviation="4" result="coloredBlur"/>
      <feMerge> 
        <feMergeNode in="coloredBlur"/>
        <feMergeNode in="SourceGraphic"/>
      </feMerge>
    </filter>
    
    <!-- Background gradient -->
    <radialGradient id="bgGrad" cx="50%" cy="50%" r="70%">
      <stop offset="0%" style="stop-color:#1a3a5c"/>
      <stop offset="100%" style="stop-color:#0a1a2e"/>
    </radialGradient>

  </defs>
  <rect width="100vw" height="100vw" fill="url(#bgGrad)"/>
  <g
     stroke="#00ccff" stroke-width="0.5" fill="none" filter="url(#strongGlow)"
     transform="translate(10,-30), scale(0.80,0.80)">
    <g
         stroke="#00ccff" stroke-width="0.5" fill="none" filter="url(#glow)"
       id="g5"
       >
       
      <path
      class="svg-text-path"
         d="m 31.48332,74.121576 q 0.396875,0 0.620117,0.322461 0.248047,0.297656 0.372071,0.744141 0.124023,0.446484 0.148828,0.967382 0.04961,0.520899 0.04961,0.967383 v 0.942578 q 0.520899,0.818555 1.314649,1.785938 0.818554,0.942578 1.860351,1.785937 1.041797,0.818555 2.257227,1.389063 1.240234,0.545703 2.629296,0.545703 1.488282,0 2.778125,-0.694531 1.314649,-0.694532 2.43086,-1.835547 1.116211,-1.16582 2.058789,-2.654102 0.942578,-1.488281 1.686718,-3.075781 0.768946,-1.612305 1.339454,-3.199805 0.595312,-1.5875 1.016992,-2.926953 0.421679,-1.339453 0.669726,-2.306836 0.248047,-0.992187 0.347266,-1.364257 0.644922,-2.629297 1.091406,-5.035352 0.471289,-2.406054 0.471289,-4.737695 0,-0.570508 -0.347265,-0.644922 l -6.151563,1.736328 q -0.520898,0.148828 -0.843359,0.148828 -0.942578,0 -1.5875,-0.595312 -0.620117,-0.595313 -0.620117,-1.711524 0,-1.116211 0.198437,-1.785937 0.223242,-0.694531 0.669727,-1.041797 0.471289,-0.347266 1.215429,-0.446484 0.744141,-0.124024 1.810743,-0.124024 h 0.347265 q 0.595313,-0.124023 1.513086,-0.347265 0.942578,-0.223243 2.083594,-0.496094 1.141015,-0.297656 2.430859,-0.620117 1.289844,-0.347266 2.604492,-0.669727 1.314649,-0.347265 2.604492,-0.669726 1.314649,-0.322461 2.455664,-0.595313 0.07441,-0.02481 0.496094,-0.124023 0.42168,-0.09922 0.942578,-0.198438 0.520899,-0.124023 0.992188,-0.223242 0.471289,-0.09922 0.620117,-0.09922 0.297656,0 0.545703,0.173633 0.248047,0.173633 0.396875,0.446484 0.173633,0.248047 0.272852,0.595313 0.09922,0.322461 0.09922,0.620117 0,0.744141 -0.570507,1.289844 -0.570508,0.545703 -1.438672,0.967383 -0.868164,0.396875 -1.909961,0.719336 -1.016992,0.297656 -1.909961,0.570507 -0.892969,0.272852 -1.537891,0.545703 -0.620117,0.248047 -0.694531,0.570508 -0.124023,1.091407 -0.248047,2.43086 -0.124023,1.339453 -0.272851,2.554882 -0.04961,0.297657 -0.223243,1.438672 -0.148828,1.141016 -0.446484,2.778125 -0.272851,1.63711 -0.694531,3.59668 -0.396875,1.934765 -0.917774,3.819922 -0.570507,2.058789 -1.513085,4.390429 -0.917774,2.331641 -2.207618,4.539258 -1.265039,2.207617 -2.877343,4.142383 -1.612305,1.909961 -3.497461,3.150195 -0.446485,0.272852 -1.041797,0.545703 -0.595313,0.272852 -1.314648,0.471289 -0.694532,0.198438 -1.488282,0.322461 -0.768945,0.124024 -1.53789,0.124024 -1.289844,0 -2.80293,-0.347266 -1.488281,-0.347266 -3.001367,-0.992188 -1.513086,-0.644921 -2.926953,-1.53789 -1.389063,-0.917774 -2.480469,-2.00918 -1.091406,-1.116211 -1.736328,-2.38125 -0.644922,-1.265039 -0.644922,-2.654101 0,-1.066602 0.198438,-1.835547 0.223242,-0.768945 0.694531,-1.240234 0.471289,-0.47129 1.240234,-0.694532 0.79375,-0.223242 1.909961,-0.223242 z m 44.325977,10.194727 q 0,-0.719336 0.173632,-1.711524 0.173633,-1.016992 0.173633,-2.505273 -0.818555,0.595312 -1.810742,1.413867 -0.992187,0.818555 -2.058789,1.562695 -1.066602,0.744141 -2.133203,1.265039 -1.041797,0.496094 -1.95957,0.496094 -0.744141,0 -1.413868,-0.223242 -0.669726,-0.223242 -1.141015,-0.595313 -1.314649,-1.041797 -1.909961,-2.083593 -0.570508,-1.041797 -0.570508,-2.43086 0,-0.620117 0.09922,-1.289844 0.124023,-0.669726 0.347265,-1.53789 0.942579,-3.919141 3.22461,-7.242969 2.306836,-3.348633 5.705078,-5.705078 1.314648,-0.917773 2.629297,-1.16582 1.314648,-0.272852 2.604492,-0.272852 0.570508,0 1.265039,0.07441 0.719336,0.07441 1.289844,0.148829 0.570507,-0.124024 0.917773,-0.173633 0.37207,-0.04961 0.768945,-0.04961 0.744141,0 1.240235,0.198438 0.496093,0.198437 0.79375,0.545703 0.297656,0.322461 0.421679,0.768945 0.148828,0.42168 0.148828,0.892969 0,0.644922 -0.198437,1.240234 -0.198438,0.570508 -0.396875,1.165821 l -3.274219,13.07207 q -0.09922,1.066601 -0.173633,1.95957 -0.07441,0.892969 -0.297656,1.661914 -0.07441,0.223242 -0.198437,0.570508 -0.09922,0.322461 -0.347266,0.644922 -0.248047,0.297656 -0.620117,0.520898 -0.37207,0.223242 -0.967383,0.223242 -0.768945,0 -1.240234,-0.09922 -0.446485,-0.09922 -0.694531,-0.272852 -0.248047,-0.198437 -0.322461,-0.446484 -0.07441,-0.272852 -0.07441,-0.620117 z M 67.57414,76.825287 q -0.09922,0.347266 -0.223242,0.992187 -0.09922,0.644922 -0.09922,1.289844 0,0.669727 0.198438,1.21543 0.198437,0.520898 0.868164,0.520898 1.041797,0 1.934766,-0.446484 0.917773,-0.471289 1.711523,-1.116211 1.066602,-0.868164 2.158008,-1.934766 1.116211,-1.091406 2.083594,-2.282031 0.992187,-1.190625 1.736328,-2.430859 0.768945,-1.265039 1.116211,-2.505274 0.198437,-0.719335 0.32246,-1.661914 0.14883,-0.942578 0.14883,-1.686718 0,-0.322461 -0.148829,-0.620117 -0.148828,-0.322461 -0.570507,-0.322461 -1.21543,0 -2.455664,0.471289 -1.21543,0.471289 -2.356446,1.265039 -1.141015,0.79375 -2.182812,1.885156 -1.016992,1.066601 -1.860352,2.306836 -0.843359,1.215429 -1.463476,2.530078 -0.595313,1.289844 -0.917774,2.530078 z m 20.835937,6.920508 q 0.744141,-2.902149 1.438672,-5.407422 0.694531,-2.505273 1.339453,-4.787305 0.669727,-2.306836 1.289844,-4.464843 0.620117,-2.158008 1.190625,-4.39043 0.223242,-0.868164 0.248047,-1.661914 0.04961,-0.818555 0.248047,-1.686719 0.09922,-0.297656 0.347265,-0.520898 0.272852,-0.248047 0.595313,-0.42168 0.322461,-0.173633 0.669726,-0.272851 0.372071,-0.09922 0.694532,-0.09922 0.694531,0 1.141015,0.173633 0.471289,0.148828 0.744141,0.421679 0.297656,0.272852 0.396875,0.669727 0.124023,0.37207 0.124023,0.843359 0,0.84336 -0.272851,1.711524 -0.272852,0.843359 -0.669727,1.860351 1.16582,-0.917773 2.381253,-1.736328 1.24023,-0.818555 2.53008,-1.438672 1.31464,-0.620117 2.6789,-0.992187 1.36426,-0.372071 2.82774,-0.372071 0.66972,0 1.33945,0.223243 0.66973,0.198437 1.19062,0.644921 0.54571,0.446485 0.89297,1.165821 0.37207,0.719336 0.42168,1.761133 1.0666,-0.719336 2.20762,-1.438672 1.14101,-0.744141 2.30684,-1.314649 1.19062,-0.595312 2.35644,-0.942578 1.19063,-0.37207 2.30684,-0.37207 1.66191,0 2.72851,0.446484 1.09141,0.42168 1.71153,1.165821 0.64492,0.719335 0.89296,1.686718 0.27286,0.967383 0.27286,2.058789 0,1.190625 -0.22325,2.455664 -0.22324,1.265039 -0.49609,2.406055 -0.71934,2.877344 -1.6123,5.457031 -0.89297,2.554883 -1.93477,5.18418 -0.24805,0.620117 -0.5209,1.314648 -0.27285,0.694531 -0.64492,1.289844 -0.34727,0.570508 -0.84336,0.967383 -0.47129,0.37207 -1.11621,0.37207 -1.46348,0 -2.00918,-0.496094 -0.5457,-0.496093 -0.5457,-1.413867 0,-0.248047 0.0248,-0.570508 0.0248,-0.322461 0.12402,-0.620117 0.0992,-0.37207 0.44649,-1.066601 0.34726,-0.719336 0.74414,-1.537891 0.42168,-0.818555 0.81855,-1.637109 0.39688,-0.84336 0.59532,-1.463477 0.32246,-1.066601 0.74414,-2.455664 0.44648,-1.413867 0.84336,-2.827734 0.39687,-1.438672 0.64492,-2.703711 0.27285,-1.289844 0.27285,-2.083594 0,-0.37207 -0.0744,-0.744141 -0.0744,-0.37207 -0.27286,-0.644921 -0.17363,-0.272852 -0.52089,-0.446485 -0.32247,-0.173633 -0.84336,-0.173633 -0.74414,0 -1.78594,0.42168 -1.01699,0.42168 -2.1332,1.116211 -1.09141,0.669727 -2.13321,1.537891 -1.04179,0.843359 -1.78593,1.686718 -0.5209,0.595313 -0.99219,0.967383 -0.47129,0.37207 -0.94258,0.570508 -0.0496,0.09922 -0.24805,0.669727 -0.19843,0.545703 -0.47129,1.339453 -0.27285,0.768945 -0.5705,1.686718 -0.29766,0.892969 -0.57051,1.686719 -0.24805,0.768945 -0.42168,1.314648 -0.17363,0.520899 -0.17363,0.570508 -0.17364,0.694532 -0.29766,1.438672 -0.12402,0.719336 -0.22324,1.389063 -0.0992,0.669726 -0.19844,1.438671 -0.0744,0.744141 -0.34727,1.413868 -0.24804,0.644922 -0.79375,1.066601 -0.52089,0.42168 -1.48828,0.42168 -0.49609,0 -0.91777,-0.248047 -0.39688,-0.248047 -0.69453,-0.620117 -0.29766,-0.396875 -0.47129,-0.868164 -0.17363,-0.496094 -0.19844,-0.992188 0.57051,-2.232422 1.11621,-4.018359 0.54571,-1.785938 1.09141,-3.423047 0.5457,-1.637109 1.0418,-3.274219 0.52089,-1.661914 1.01699,-3.646289 0.12402,-0.471289 0.19844,-0.917773 0.0744,-0.471289 0.0744,-0.818555 0,-0.595312 -0.24805,-0.967382 -0.24804,-0.396875 -0.86816,-0.396875 -1.01699,0 -2.03399,0.421679 -0.99218,0.396875 -2.158,1.265039 -1.16582,0.868164 -2.604496,2.207617 -1.413867,1.339454 -3.274218,3.199805 -0.198438,0.37207 -0.520899,1.389063 -0.322461,1.016992 -0.669726,2.158007 -0.322461,1.141016 -0.595313,2.133203 -0.272851,0.967383 -0.347266,1.289844 -0.272851,1.041797 -0.37207,1.761133 -0.09922,0.694531 -0.173633,1.265039 -0.04961,0.297656 -0.148828,0.992187 -0.09922,0.669727 -0.37207,1.364258 -0.248047,0.694531 -0.719336,1.21543 -0.471289,0.545703 -1.240234,0.545703 -1.141016,0 -1.885157,-0.620117 -0.719336,-0.620117 -0.719336,-1.562695 0,-0.173633 0.02481,-0.322461 0.02481,-0.148828 0.07441,-0.322461 z m 43.557033,-2.902149 q 0.37207,-1.438672 0.89296,-3.348632 0.5209,-1.909961 1.09141,-4.043164 0.59531,-2.133204 1.19063,-4.365625 0.59531,-2.232422 1.11621,-4.340821 0.0248,-0.09922 0.17363,-0.322461 0.14883,-0.248046 0.42168,-0.471289 0.27285,-0.248046 0.69453,-0.421679 0.42168,-0.173633 0.99219,-0.173633 0.42168,0 0.81855,0.09922 0.39688,0.07441 0.69453,0.248047 0.32247,0.173632 0.4961,0.471289 0.19844,0.272851 0.19844,0.644921 0,0.07441 0,0.173633 0,0.07441 -0.0248,0.148828 l -0.69453,2.629297 q -1.16582,4.415235 -2.38125,8.855273 -1.19063,4.440039 -2.33164,8.904883 -0.0496,0.148828 -0.14883,0.37207 -0.0992,0.223243 -0.27285,0.446485 -0.17363,0.223242 -0.42168,0.37207 -0.24805,0.148828 -0.59531,0.148828 -0.64492,0 -1.14102,-0.272851 -0.49609,-0.248047 -0.84336,-0.644922 -0.34726,-0.396875 -0.5209,-0.868164 -0.17363,-0.471289 -0.17363,-0.892969 0,-0.124023 0,-0.223242 0,-0.09922 0.0496,-0.223242 z m 6.47402,-25.672851 q 0.12402,-0.520898 0.44648,-1.265039 0.32246,-0.744141 1.14102,-1.339453 0.39687,-0.223242 0.96738,-0.396875 0.57051,-0.198438 0.81856,-0.198438 0.24804,0 0.49609,0.173633 0.27285,0.173633 0.47129,0.372071 0.24805,0.248046 0.47129,0.545703 0.62012,0.04961 0.79375,0.446484 0.19844,0.396875 0.19844,0.942578 0,0.396875 -0.0744,0.719336 -0.0744,0.322461 -0.12402,0.520899 -0.14883,0.520898 -0.57051,0.967382 -0.42168,0.42168 -0.96738,0.744141 -0.5457,0.297656 -1.14102,0.471289 -0.59531,0.173633 -1.04179,0.173633 -0.57051,0 -0.89297,-0.198438 -0.29766,-0.198437 -0.76895,-0.843359 -0.27285,-0.37207 -0.32246,-0.570508 -0.0248,-0.223242 -0.0248,-0.37207 0,-0.272852 0.0248,-0.471289 0.0496,-0.223242 0.0992,-0.42168 z m 7.01973,25.821679 q 0.19844,0 0.34726,0.04961 0.17364,0.04961 0.37208,0.124023 0.19843,0.04961 0.44648,0.09922 0.24805,0.04961 0.64492,0.04961 1.16582,0 2.57969,-0.248047 1.43867,-0.248046 2.70371,-0.644921 1.26504,-0.396875 2.15801,-0.892969 0.91777,-0.520899 1.04179,-1.066602 0.0744,-0.297656 0.0744,-0.520898 0,-0.42168 -0.42168,-0.79375 -0.39688,-0.396875 -1.01699,-0.744141 -0.62012,-0.347265 -1.33946,-0.644922 -0.71933,-0.297656 -1.33945,-0.545703 l -0.84336,-0.347265 q -0.64492,-0.248047 -1.26504,-0.595313 -0.62012,-0.37207 -1.16582,-0.843359 -0.5209,-0.471289 -0.94258,-1.091406 -0.39687,-0.644922 -0.59531,-1.463477 -0.0992,-0.347266 -0.17363,-0.694531 -0.0496,-0.347266 -0.0496,-0.744141 0,-0.644922 0.42168,-1.463476 0.44648,-0.84336 1.16582,-1.661914 0.74414,-0.818555 1.66191,-1.562696 0.94258,-0.74414 1.95957,-1.240234 0.74414,-0.520898 1.43868,-0.942578 0.69453,-0.42168 1.38906,-0.719336 0.71933,-0.297656 1.43867,-0.471289 0.74414,-0.173633 1.56269,-0.173633 0.74415,0 1.61231,0.07441 0.86816,0.07441 1.5875,0.347266 0.71934,0.272851 1.19062,0.818554 0.4961,0.520899 0.4961,1.413868 0,0.272851 -0.0744,0.719336 -0.0744,0.446484 -0.24804,0.892968 -0.17364,0.446485 -0.42168,0.768946 -0.24805,0.322461 -0.59532,0.322461 -0.5705,0 -0.94257,-0.223243 -0.37207,-0.223242 -0.66973,-0.471289 -0.29766,-0.272851 -0.62012,-0.496093 -0.32246,-0.223243 -0.79375,-0.223243 -0.5705,0 -1.33945,0.223243 -0.74414,0.198437 -1.53789,0.570507 -0.79375,0.347266 -1.5627,0.818555 -0.74414,0.471289 -1.36425,0.967383 -0.59532,0.496094 -0.96739,0.992187 -0.37207,0.471289 -0.37207,0.868164 0,0.42168 0.27285,0.694532 0.27286,0.272851 0.69454,0.471289 0.5457,0.297656 1.24023,0.595312 0.71934,0.297656 1.43867,0.595313 0.71934,0.297656 1.38906,0.595312 0.69454,0.297656 1.19063,0.545703 0.66973,0.347266 1.19062,0.694531 0.54571,0.322461 0.91778,0.719336 0.37207,0.396875 0.57051,0.892969 0.19843,0.496094 0.19843,1.16582 0,0.322461 -0.0496,0.644922 -0.0496,0.322461 -0.14882,0.744141 -0.0744,0.37207 -0.27286,0.868164 -0.17363,0.496094 -0.39687,0.992187 -0.19844,0.47129 -0.42168,0.868164 -0.22324,0.372071 -0.37207,0.496094 -0.96738,0.892969 -2.28203,1.686719 -1.31465,0.768945 -2.75332,1.364258 -1.41387,0.570508 -2.85254,0.917773 -1.41387,0.347266 -2.60449,0.347266 -0.59532,0 -1.31465,-0.223242 -0.71934,-0.248047 -1.33945,-0.620118 -0.59532,-0.396875 -1.017,-0.892968 -0.39687,-0.496094 -0.39687,-0.992188 0,-0.248047 0.14883,-0.545703 0.14882,-0.322461 0.37207,-0.570508 0.22324,-0.272851 0.47129,-0.446484 0.27285,-0.198438 0.49609,-0.198438 z m 20.6623,-5.109765 q 0.37207,-1.513086 1.14102,-3.199805 0.79375,-1.711523 2.05879,-3.447851 1.26503,-1.736328 3.02617,-3.398242 1.78593,-1.661914 4.11758,-3.100586 0.37207,-0.223242 1.14101,-0.471289 0.76895,-0.272852 1.5875,-0.322461 0.96738,-1.041797 2.60449,-1.041797 1.93477,0 3.24942,0.992187 1.33945,0.967383 2.20761,2.654102 0.27286,0.545703 0.4961,1.066601 0.24804,0.520899 0.39687,1.116211 0.17364,0.570508 0.27285,1.240235 0.0992,0.669726 0.0992,1.513086 0,1.95957 -0.62011,3.993554 -0.62012,2.033985 -1.76114,3.96875 -1.14101,1.934766 -2.77812,3.720703 -1.61231,1.761133 -3.59668,3.175 -1.33945,0.967383 -2.97656,1.488281 -1.61231,0.545704 -3.62149,0.545704 -1.90996,0 -3.32383,-0.520899 -1.38906,-0.496094 -2.33164,-1.438672 -0.91777,-0.942578 -1.38906,-2.257226 -0.44648,-1.314649 -0.44648,-2.926953 0,-1.562696 0.44648,-3.348633 z m 4.11758,0.322461 q -0.14883,0.570508 -0.22324,1.091406 -0.0496,0.496094 -0.0496,0.967383 0,0.818555 0.19843,1.53789 0.22325,0.694532 0.69454,1.21543 0.47129,0.496094 1.16582,0.79375 0.71933,0.272852 1.73632,0.272852 1.88516,0 3.49747,-0.942578 1.6371,-0.967383 2.90214,-2.406055 1.26504,-1.438672 2.1084,-3.075781 0.86817,-1.661914 1.21543,-3.050977 0.22324,-0.868164 0.37207,-1.637109 0.17363,-0.768945 0.17363,-1.413867 0,-0.644922 -0.24804,-1.190625 -0.22324,-0.570508 -0.59531,-1.265039 -0.22325,-0.42168 -0.44649,-0.868164 -0.22324,-0.471289 -0.39687,-0.917774 -0.19844,0.347266 -0.42168,0.620117 -0.22325,0.248047 -0.66973,0.471289 -0.44648,0.198438 -1.21543,0.372071 -0.76894,0.173633 -2.00918,0.297656 -0.81855,0.272852 -1.66191,0.843359 -0.84336,0.570508 -1.66192,1.339453 -0.79375,0.768946 -1.53789,1.661914 -0.71933,0.892969 -1.31465,1.835547 -0.5705,0.917774 -1.01699,1.810742 -0.42168,0.892969 -0.59531,1.63711 z m 40.10918,-11.186914 q -0.86816,0 -1.86035,0.42168 -0.99219,0.396875 -2.05879,1.091406 -1.0666,0.694531 -2.18281,1.5875 -1.09141,0.868164 -2.15801,1.810742 -0.5457,0.471289 -1.0418,0.868164 -0.49609,0.37207 -0.99218,0.570508 -0.34727,0.570508 -0.74414,1.513086 -0.37207,0.917773 -0.74414,2.033984 -0.37208,1.091406 -0.71934,2.257227 -0.32246,1.141015 -0.5457,2.133203 -0.12403,0.520898 -0.19844,1.016992 -0.0744,0.496094 -0.17363,1.066601 -0.0992,0.545704 -0.24805,1.190625 -0.12402,0.644922 -0.32246,1.438672 -0.12403,0.471289 -0.39688,0.768946 -0.27285,0.272851 -0.5705,0.421679 -0.29766,0.148828 -0.57051,0.173633 -0.27285,0.04961 -0.42168,0.04961 -0.94258,0 -1.53789,-0.446484 -0.59532,-0.446484 -0.59532,-1.736328 0,-0.347266 0.0248,-0.719336 0.0248,-0.396875 0.14883,-0.868164 0.5457,-2.356445 1.04179,-4.241602 0.5209,-1.885156 1.0418,-3.49746 0.5209,-1.612305 1.0418,-3.026172 0.5457,-1.438672 1.0914,-2.877344 0.57051,-1.463476 1.16582,-3.001367 0.62012,-1.562695 1.31465,-3.447852 0.14883,-0.421679 0.76895,-0.694531 0.64492,-0.297656 1.36426,-0.297656 0.94257,0 1.53789,0.42168 0.62011,0.421679 0.62011,1.215429 0,0.07441 -0.0496,0.272852 -0.0496,0.198437 -0.14882,0.42168 l -1.09141,2.579687 q 1.0418,-0.818555 2.15801,-1.637109 1.14101,-0.818555 2.33164,-1.463477 1.19062,-0.669726 2.38125,-1.066601 1.21543,-0.42168 2.38125,-0.42168 2.38125,0 3.7207,1.289844 1.33945,1.265039 1.33945,3.943945 0,1.53789 -0.5457,3.497461 -0.5209,1.95957 -1.33945,4.216797 -0.79375,2.232421 -1.73633,4.71289 -0.91777,2.455664 -1.71152,5.010547 -0.22325,0.694531 -0.47129,1.16582 -0.22324,0.471289 -0.54571,0.744141 -0.32246,0.297656 -0.76894,0.421679 -0.42168,0.124024 -1.0418,0.124024 -0.96738,0 -1.33945,-0.37207 -0.37207,-0.347266 -0.37207,-1.141016 0,-0.694531 0.19844,-1.686719 0.22324,-1.016992 0.59531,-2.207617 0.39687,-1.21543 0.89297,-2.579687 0.5209,-1.364258 1.11621,-2.778125 0.47129,-1.141016 0.91777,-2.282032 0.47129,-1.141015 0.81856,-2.207617 0.37207,-1.066601 0.59531,-2.033984 0.22324,-0.967383 0.22324,-1.785937 0,-0.768946 -0.34726,-1.339454 -0.32247,-0.595312 -1.24024,-0.595312 z"
         id="text4"
         aria-label="Jamison" />
      <path
      class="svg-text-path"
         d="m 14.475496,109.60125 q 0.545703,-2.25722 1.413868,-4.71289 0.892968,-2.45566 1.860351,-5.010544 0.967383,-2.554883 1.909961,-5.18418 0.942578,-2.654102 1.612305,-5.283398 0.173632,-0.644922 0.297656,-1.190625 0.124023,-0.545704 0.248047,-1.165821 0.297656,-0.644922 0.79375,-0.992187 0.520898,-0.347266 1.116211,-0.347266 0.545703,0 1.016992,0.173633 0.496094,0.173633 0.843359,0.570508 0.372071,0.37207 0.570508,0.967383 0.223242,0.595312 0.223242,1.413867 0,0.892969 -0.272851,2.033984 -0.967383,2.480469 -1.959571,4.861719 -0.992187,2.38125 -1.934765,4.663277 -0.917774,2.28204 -1.711524,4.51446 -0.79375,2.23242 -1.364257,4.41523 -0.04961,0.17363 -0.198438,0.76895 -0.148828,0.5705 -0.322461,1.38906 -0.148828,0.81855 -0.272851,1.76113 -0.124024,0.91778 -0.124024,1.78594 0,0.59531 0.07441,1.14102 0.07441,0.52089 0.248047,0.91777 0.173633,0.39687 0.471289,0.62012 0.297656,0.22324 0.744141,0.22324 0.942578,0 2.306836,-0.96739 1.364257,-0.99218 2.951757,-2.6789 1.5875,-1.68672 3.249414,-3.94395 1.686719,-2.25722 3.274219,-4.83691 1.5875,-2.57969 2.951758,-5.3082 1.364258,-2.728519 2.306836,-5.382621 0.223242,-0.471289 0.545703,-0.595312 0.322461,-0.148828 0.843359,-0.148828 0.967383,0 1.612305,0.595312 0.669726,0.570508 0.669726,1.488281 0,0.223243 -0.04961,0.42168 -0.04961,0.198438 -0.148828,0.471289 L 39.9251,98.067073 q -0.396875,1.165821 -0.768945,2.158007 -0.347266,0.96738 -0.570508,1.83555 -0.322461,1.24023 -0.520898,2.28203 -0.198438,1.01699 -0.322461,1.93476 -0.09922,0.89297 -0.148828,1.76114 -0.02481,0.86816 -0.02481,1.76113 0,0.34727 0.04961,1.01699 0.07442,0.66973 0.198438,1.48828 0.124023,0.79375 0.322461,1.63711 0.223242,0.81856 0.496094,1.51309 0.297656,0.69453 0.669726,1.14101 0.396875,0.42168 0.892969,0.42168 0.768945,0 1.612305,-0.62011 0.868164,-0.64492 1.736328,-1.73633 0.868164,-1.11621 1.736328,-2.60449 0.892969,-1.48828 1.711523,-3.19981 0.84336,-1.71152 1.5875,-3.54707 0.768945,-1.83554 1.389063,-3.62148 0.644922,-1.810744 1.116211,-3.472658 0.496093,-1.686719 0.79375,-3.075782 0.272851,-1.314648 0.471289,-2.554882 0.198437,-1.240235 0.396875,-2.480469 0.198437,-1.240235 0.421679,-2.480469 0.248047,-1.265039 0.595313,-2.579687 0.124023,-0.471289 0.37207,-0.967383 0.248047,-0.496094 0.595313,-0.892969 0.37207,-0.42168 0.79375,-0.669726 0.421679,-0.272852 0.868164,-0.272852 1.116211,0 1.513086,0.620117 0.396875,0.595313 0.396875,2.00918 0,1.041797 -0.198438,2.430859 -0.173633,1.389063 -0.471289,2.926953 -0.272852,1.513086 -0.620117,3.075781 -0.347266,1.562696 -0.694531,2.951758 -0.694532,2.827735 -1.835547,5.878709 -1.141016,3.02617 -2.554883,5.92832 -1.389063,2.87735 -2.976563,5.43223 -1.562695,2.55488 -3.150195,4.39043 -0.545703,0.64492 -1.289844,1.31465 -0.74414,0.66972 -1.612304,1.21543 -0.84336,0.5457 -1.736328,0.89297 -0.868164,0.37207 -1.686719,0.37207 -1.711523,0 -2.877344,-0.99219 -1.141015,-1.01699 -1.885156,-2.67891 -0.719336,-1.68672 -1.116211,-3.81992 -0.37207,-2.15801 -0.545703,-4.44004 -1.389062,2.05879 -2.554883,3.67109 -1.141015,1.61231 -2.33164,2.97657 -0.892969,1.01699 -2.00918,2.20761 -1.116211,1.16582 -2.38125,2.15801 -1.240234,1.01699 -2.554883,1.66192 -1.314648,0.66972 -2.579687,0.66972 -1.463477,0 -2.455664,-0.5209 -0.967383,-0.49609 -1.562695,-1.38906 -0.595313,-0.89297 -0.868165,-2.1084 -0.248046,-1.21543 -0.248046,-2.62929 0,-1.63711 0.272851,-3.37344 0.272852,-1.73633 0.694531,-3.47266 z m 45.045311,6.57325 q 0.37207,-1.43868 0.892968,-3.34864 0.520899,-1.90996 1.091407,-4.04316 0.595312,-2.1332 1.190625,-4.36563 0.595312,-2.23242 1.11621,-4.34082 0.02481,-0.09922 0.173633,-0.322458 0.148828,-0.248047 0.42168,-0.471289 0.272852,-0.248047 0.694531,-0.42168 0.42168,-0.173632 0.992188,-0.173632 0.421679,0 0.818554,0.09922 0.396875,0.07441 0.694532,0.248047 0.322461,0.173633 0.496093,0.471289 0.198438,0.272852 0.198438,0.644923 0,0.0744 0,0.17363 0,0.0744 -0.02481,0.14883 l -0.694531,2.62929 q -1.16582,4.41524 -2.38125,8.85528 -1.190625,4.44004 -2.331641,8.90488 -0.04961,0.14883 -0.148828,0.37207 -0.09922,0.22324 -0.272851,0.44649 -0.173633,0.22324 -0.42168,0.37207 -0.248047,0.14882 -0.595312,0.14882 -0.644922,0 -1.141016,-0.27285 -0.496094,-0.24804 -0.843359,-0.64492 -0.347266,-0.39687 -0.520899,-0.86816 -0.173633,-0.47129 -0.173633,-0.89297 0,-0.12403 0,-0.22324 0,-0.0992 0.04961,-0.22325 z M 65.99483,90.501644 q 0.124023,-0.520899 0.446484,-1.265039 0.322461,-0.744141 1.141016,-1.339453 0.396875,-0.223243 0.967383,-0.396875 0.570508,-0.198438 0.818554,-0.198438 0.248047,0 0.496094,0.173633 0.272852,0.173633 0.471289,0.37207 0.248047,0.248047 0.471289,0.545703 0.620117,0.04961 0.79375,0.446485 0.198438,0.396875 0.198438,0.942578 0,0.396875 -0.07441,0.719336 -0.07441,0.322461 -0.124024,0.520898 -0.148828,0.520899 -0.570508,0.967383 -0.421679,0.42168 -0.967382,0.744141 -0.545703,0.297656 -1.141016,0.471289 -0.595312,0.173633 -1.041797,0.173633 -0.570508,0 -0.892969,-0.198438 -0.297656,-0.198437 -0.768945,-0.843359 -0.272851,-0.372071 -0.322461,-0.570508 -0.0248,-0.223242 -0.0248,-0.37207 0,-0.272852 0.0248,-0.471289 0.04961,-0.223243 0.09922,-0.42168 z m 24.035741,9.847456 q -0.868164,0 -1.860351,0.42168 -0.992188,0.39688 -2.058789,1.09141 -1.066602,0.69453 -2.182813,1.5875 -1.091406,0.86816 -2.158008,1.81074 -0.545703,0.47129 -1.041796,0.86817 -0.496094,0.37207 -0.992188,0.5705 -0.347266,0.57051 -0.744141,1.51309 -0.37207,0.91777 -0.74414,2.03398 -0.37207,1.09141 -0.719336,2.25723 -0.322461,1.14102 -0.545703,2.1332 -0.124024,0.5209 -0.198438,1.017 -0.07441,0.49609 -0.173633,1.0666 -0.09922,0.5457 -0.248046,1.19062 -0.124024,0.64492 -0.322461,1.43867 -0.124024,0.47129 -0.396875,0.76895 -0.272852,0.27285 -0.570508,0.42168 -0.297656,0.14883 -0.570508,0.17363 -0.272851,0.0496 -0.42168,0.0496 -0.942578,0 -1.53789,-0.44648 -0.595313,-0.44649 -0.595313,-1.73633 0,-0.34727 0.02481,-0.71934 0.02481,-0.39687 0.148828,-0.86816 0.545703,-2.35645 1.041797,-4.2416 0.520898,-1.88516 1.041797,-3.49746 0.520898,-1.61231 1.041797,-3.02617 0.545703,-1.43868 1.091406,-2.87735 0.570508,-1.46347 1.16582,-3.00137 0.620117,-1.562691 1.314649,-3.447847 0.148828,-0.42168 0.768945,-0.694531 0.644922,-0.297656 1.364258,-0.297656 0.942578,0 1.53789,0.421679 0.620118,0.42168 0.620118,1.21543 0,0.07441 -0.04961,0.272852 -0.04961,0.198437 -0.148828,0.421679 l -1.091406,2.579684 q 1.041797,-0.81855 2.158008,-1.637106 1.141015,-0.818554 2.33164,-1.463476 1.190625,-0.669727 2.38125,-1.066602 1.21543,-0.421679 2.38125,-0.421679 2.38125,0 3.720703,1.289843 1.339453,1.265039 1.339453,3.94395 0,1.53789 -0.545703,3.49746 -0.520898,1.95957 -1.339453,4.21679 -0.79375,2.23243 -1.736328,4.71289 -0.917773,2.45567 -1.711523,5.01055 -0.223243,0.69453 -0.47129,1.16582 -0.223242,0.47129 -0.545703,0.74414 -0.322461,0.29766 -0.768945,0.42168 -0.42168,0.12402 -1.041797,0.12402 -0.967383,0 -1.339453,-0.37207 -0.37207,-0.34726 -0.37207,-1.14101 0,-0.69453 0.198437,-1.68672 0.223242,-1.01699 0.595313,-2.20762 0.396875,-1.21543 0.892968,-2.57968 0.520899,-1.36426 1.116211,-2.77813 0.471289,-1.14102 0.917774,-2.28203 0.471289,-1.14102 0.818555,-2.20762 0.37207,-1.0666 0.595312,-2.03398 0.223242,-0.96739 0.223242,-1.78594 0,-0.76895 -0.347265,-1.33945 -0.322461,-0.59532 -1.240235,-0.59532 z m 13.989839,12.6504 q 0,-2.0836 0.47129,-4.31602 0.47129,-2.25723 0.99219,-4.31602 -0.64492,-0.0248 -1.31465,-0.19843 -0.66972,-0.17364 -1.21543,-0.47129 -0.5457,-0.29766 -0.89297,-0.71934 -0.34726,-0.44648 -0.34726,-1.01699 0,-0.22324 0.0992,-0.57051 0.0992,-0.34726 0.27285,-0.66973 0.19844,-0.34726 0.49609,-0.5705 0.29766,-0.24805 0.66973,-0.24805 h 3.32383 q 0.47129,0 0.64492,-0.396875 0.17363,-0.421679 0.27285,-0.818554 0.32246,-1.438672 0.59531,-2.480469 0.29766,-1.066602 0.4961,-1.785938 0.19843,-0.74414 0.29765,-1.190625 0.12403,-0.471289 0.12403,-0.74414 0,-0.322461 -0.0248,-0.620117 -0.0248,-0.297657 -0.0248,-0.818555 V 90.7993 q 0,-0.198437 0.0248,-0.520898 0.0496,-0.322461 0.24805,-0.917774 0.14883,-0.471289 0.5457,-0.892969 0.39688,-0.421679 1.16582,-0.421679 0.66973,0 1.14102,0.272851 0.47129,0.272852 0.76894,0.719336 0.29766,0.446485 0.44649,1.016992 0.14882,0.570508 0.14882,1.141016 0,0.620117 -0.12402,1.116211 l -1.81074,6.945312 q 1.33945,-0.223242 2.38125,-0.421679 1.0418,-0.198438 2.08359,-0.396875 1.14102,-0.223242 1.95957,-0.42168 0.84336,-0.198437 1.43867,-0.322461 0.59532,-0.148828 0.99219,-0.223242 0.42168,-0.09922 0.69453,-0.09922 0.39688,0 0.79375,0.07441 0.42168,0.04961 0.71934,0.198438 0.32246,0.148828 0.5209,0.421679 0.19844,0.272852 0.19844,0.719336 0,0.595313 -0.24805,1.066602 -0.22324,0.446494 -0.59531,0.793754 -0.37207,0.32246 -0.84336,0.5457 -0.47129,0.19844 -0.94258,0.29766 -0.39688,0.0744 -1.0418,0.22324 -0.62012,0.14883 -1.38906,0.32246 -0.74414,0.17364 -1.5627,0.37207 -0.81855,0.19844 -1.5875,0.39688 -1.14101,0.29765 -1.95957,0.49609 -0.79375,0.19844 -1.36425,0.29766 -0.57051,0.0992 -0.94258,0.14883 -0.34727,0.0496 -0.57051,0.0496 -0.47129,1.41386 -0.81855,2.77812 -0.34727,1.36426 -0.59532,2.55488 -0.22324,1.16582 -0.34726,2.1084 -0.0992,0.91778 -0.0992,1.43867 0,0.66973 0.12402,1.28985 0.12403,0.59531 0.42168,1.04179 0.29766,0.44649 0.79375,0.71934 0.5209,0.24805 1.28985,0.24805 1.31464,0 2.57968,-0.71934 1.26504,-0.71933 2.40606,-1.81074 1.16582,-1.11621 2.18281,-2.43086 1.0418,-1.31465 1.90996,-2.50527 0.29766,-0.44649 0.76895,-0.44649 0.14882,0 0.34726,0.0496 0.22324,0.0496 0.42168,0.17363 0.19844,0.12403 0.32246,0.32247 0.14883,0.19843 0.14883,0.47128 0,0.19844 -0.0248,0.29766 -0.39688,1.53789 -1.24024,3.10059 -0.81855,1.53789 -1.68672,3.10058 -0.29765,0.54571 -0.79375,1.0666 -0.47129,0.5209 -1.04179,1.017 -0.57051,0.47129 -1.19063,0.91777 -0.62012,0.42168 -1.16582,0.76894 -0.94258,0.59532 -2.05879,0.81856 -1.11621,0.22324 -2.15801,0.22324 -1.6123,0 -2.87734,-0.57051 -1.24023,-0.59531 -2.1084,-1.5875 -0.84336,-1.01699 -1.28984,-2.35644 -0.44649,-1.33945 -0.44649,-2.87734 z m 22.91954,-1.86036 q 0,-1.0666 0.57051,-1.81074 0.57051,-0.74414 1.51308,-0.99219 0.27286,-0.5457 0.84336,-1.46347 0.57051,-0.94258 1.41387,-2.03399 0.84336,-1.0914 1.90996,-2.18281 1.09141,-1.11621 2.38125,-2.00918 1.31465,-0.917773 2.80293,-1.48828 1.51309,-0.570508 3.19981,-0.570508 1.43867,0 2.50527,0.347265 1.0666,0.347266 1.76113,0.967383 0.69453,0.62012 1.0418,1.48828 0.34727,0.84336 0.34727,1.83555 0,0.84336 -0.22325,1.6123 -0.34726,1.38907 -1.28984,2.43086 -0.94258,1.0418 -2.23242,1.83555 -1.26504,0.76894 -2.77813,1.28984 -1.48828,0.5209 -3.00136,0.86817 -1.48829,0.34726 -2.87735,0.5457 -1.38906,0.17363 -2.40605,0.27285 -0.22325,0.44649 -0.39688,1.14102 -0.14883,0.66972 -0.14883,1.31465 0,1.43867 1.14102,2.23242 1.14102,0.79375 3.15019,0.79375 1.16582,0 2.23243,-0.24805 1.0666,-0.27285 2.00918,-0.66973 0.96738,-0.42168 1.81074,-0.89296 0.84336,-0.4961 1.53789,-0.96739 0.89297,-0.59531 1.68672,-0.99218 0.81855,-0.42168 1.43867,-0.42168 0.62012,0 0.79375,0.32246 0.17363,0.29765 0.17363,0.64492 0,0.19844 -0.0248,0.39687 0,0.17364 -0.0248,0.29766 -0.12402,0.64492 -0.49609,1.28984 -0.37207,0.64492 -0.94258,1.11621 -2.57969,2.03399 -5.3082,2.90215 -2.70371,0.86817 -5.77949,0.86817 -0.59532,0 -1.41387,-0.0744 -0.79375,-0.0744 -1.66192,-0.29765 -0.86816,-0.22325 -1.71152,-0.64493 -0.84336,-0.42168 -1.51308,-1.11621 -0.64493,-0.69453 -1.06661,-1.71152 -0.39687,-1.01699 -0.39687,-2.45566 0,-1.16582 0.32246,-2.6045 -0.32246,-0.0496 -0.62012,-0.32246 -0.27285,-0.29765 -0.27285,-0.84336 z m 15.52774,-6.87089 q 0.0496,-0.12403 0.0496,-0.22325 0,-0.0992 0,-0.22324 0,-0.66973 -0.49609,-0.99219 -0.49609,-0.34726 -1.19062,-0.34726 -1.09141,0 -2.15801,0.57051 -1.0418,0.5705 -1.98438,1.43867 -0.91777,0.84336 -1.63711,1.83554 -0.71933,0.96739 -1.11621,1.76114 1.78594,-0.14883 3.27422,-0.47129 1.48828,-0.34727 2.57969,-0.84336 1.11621,-0.5209 1.78594,-1.14102 0.69453,-0.64492 0.89297,-1.36425 z m -2.87735,-6.722075 z m 13.2953,20.612695 q 0.32246,-1.73633 0.74414,-3.81992 0.42168,-2.0836 0.86817,-4.2168 0.44648,-2.1332 0.86816,-4.19199 0.42168,-2.05879 0.71934,-3.77031 -0.0248,-0.24805 -0.0248,-0.42168 0,-0.19844 0,-0.42168 0,-0.76895 0.0992,-1.537893 0.0992,-0.768945 0.27285,-1.413867 0.27286,-0.942578 0.59532,-1.265039 0.34726,-0.347266 1.0914,-0.347266 0.71934,0 1.14102,0.297656 0.44648,0.272852 0.69453,0.744141 0.24805,0.471289 0.32246,1.091406 0.0744,0.595313 0.0744,1.240232 0,0.34727 -0.0248,0.76895 -0.0248,0.42168 -0.0248,0.66972 0.69454,-0.71933 1.46348,-1.46347 0.79375,-0.768948 1.66192,-1.36426 0.89296,-0.620117 1.86035,-1.016992 0.99218,-0.396875 2.05879,-0.396875 0.42168,0 0.81855,0.07441 0.42168,0.07441 0.84336,0.198437 0.49609,0.124024 1.01699,0.347266 0.54571,0.198437 1.0418,0.570508 0.81855,0.620117 1.36426,1.562696 0.5705,0.91778 0.5705,1.88516 0,0.37207 -0.14882,0.81855 -0.14883,0.42168 -0.42168,0.79375 -0.24805,0.34727 -0.59532,0.59532 -0.34726,0.22324 -0.76894,0.22324 -0.42168,0 -1.0418,-0.19844 -0.59531,-0.22324 -0.99219,-0.57051 -0.17363,-0.14882 -0.37207,-0.42168 -0.17363,-0.27285 -0.34726,-0.5457 -0.14883,-0.27285 -0.29766,-0.49609 -0.12402,-0.24805 -0.19843,-0.32246 -0.12403,-0.0248 -0.27286,-0.0248 -0.14882,-0.0248 -0.27285,-0.0248 -1.26504,0 -2.40605,0.64492 -1.14102,0.64492 -2.13321,1.5875 -0.99218,0.91777 -1.83554,1.98437 -0.81856,1.0418 -1.43867,1.88516 -0.4961,2.00918 -1.11622,4.29121 -0.59531,2.25723 -1.19062,4.7377 v 0.62011 q 0,0.74414 -0.0496,1.51309 -0.0496,0.76894 -0.29766,1.36426 -0.27285,0.37207 -0.79375,0.62011 -0.49609,0.27286 -1.16582,0.27286 -1.04179,0 -1.56269,-0.66973 -0.5209,-0.69453 -0.5209,-1.61231 0,-0.42168 0.12402,-0.86816 z m 21.72892,-1.83555 q 0.19844,0 0.34727,0.0496 0.17363,0.0496 0.37207,0.12403 0.19844,0.0496 0.44648,0.0992 0.24805,0.0496 0.64492,0.0496 1.16582,0 2.57969,-0.24804 1.43867,-0.24805 2.70371,-0.64492 1.26504,-0.39688 2.15801,-0.89297 0.91777,-0.5209 1.0418,-1.0666 0.0744,-0.29766 0.0744,-0.5209 0,-0.42168 -0.42168,-0.79375 -0.39687,-0.39688 -1.01699,-0.74414 -0.62012,-0.34727 -1.33945,-0.64493 -0.71934,-0.29765 -1.33946,-0.5457 l -0.84336,-0.34726 q -0.64492,-0.24805 -1.26504,-0.59532 -0.62011,-0.37207 -1.16582,-0.84336 -0.52089,-0.47129 -0.94257,-1.0914 -0.39688,-0.64492 -0.59532,-1.46348 -0.0992,-0.34726 -0.17363,-0.69453 -0.0496,-0.34727 -0.0496,-0.74414 0,-0.64492 0.42168,-1.46348 0.44649,-0.84336 1.16582,-1.66191 0.74414,-0.81856 1.66192,-1.5627 0.94257,-0.744138 1.95957,-1.240231 0.74414,-0.520899 1.43867,-0.942578 0.69453,-0.42168 1.38906,-0.719336 0.71934,-0.297657 1.43867,-0.471289 0.74414,-0.173633 1.5627,-0.173633 0.74414,0 1.6123,0.07441 0.86817,0.07441 1.5875,0.347265 0.71934,0.272852 1.19063,0.818555 0.49609,0.520899 0.49609,1.413867 0,0.272852 -0.0744,0.719336 -0.0744,0.446484 -0.24805,0.892974 -0.17363,0.44648 -0.42168,0.76894 -0.24805,0.32247 -0.59531,0.32247 -0.57051,0 -0.94258,-0.22325 -0.37207,-0.22324 -0.66973,-0.47129 -0.29765,-0.27285 -0.62011,-0.49609 -0.32247,-0.22324 -0.79375,-0.22324 -0.57051,0 -1.33946,0.22324 -0.74414,0.19844 -1.53789,0.57051 -0.79375,0.34726 -1.56269,0.81855 -0.74414,0.47129 -1.36426,0.96739 -0.59531,0.49609 -0.96738,0.99218 -0.37207,0.47129 -0.37207,0.86817 0,0.42168 0.27285,0.69453 0.27285,0.27285 0.69453,0.47129 0.5457,0.29765 1.24023,0.59531 0.71934,0.29766 1.43867,0.59531 0.71934,0.29766 1.38907,0.59531 0.69453,0.29766 1.19062,0.54571 0.66973,0.34726 1.19063,0.69453 0.5457,0.32246 0.91777,0.71934 0.37207,0.39687 0.57051,0.89296 0.19844,0.4961 0.19844,1.16582 0,0.32247 -0.0496,0.64493 -0.0496,0.32246 -0.14883,0.74414 -0.0744,0.37207 -0.27285,0.86816 -0.17364,0.49609 -0.39688,0.99219 -0.19844,0.47129 -0.42168,0.86816 -0.22324,0.37207 -0.37207,0.4961 -0.96738,0.89296 -2.28203,1.68671 -1.31465,0.76895 -2.75332,1.36426 -1.41387,0.57051 -2.85254,0.91778 -1.41387,0.34726 -2.60449,0.34726 -0.59531,0 -1.31465,-0.22324 -0.71933,-0.24805 -1.33945,-0.62012 -0.59531,-0.39687 -1.01699,-0.89297 -0.39688,-0.49609 -0.39688,-0.99218 0,-0.24805 0.14883,-0.54571 0.14883,-0.32246 0.37207,-0.57051 0.22324,-0.27285 0.47129,-0.44648 0.27285,-0.19844 0.49609,-0.19844 z"
         id="text5"
         aria-label="Winters" />
    </g>
  </g>
</svg>
